<svg xmlns="http://www.w3.org/2000/svg" viewBox="0 0 618 34.05"><g id="Livello_2" data-name="Livello 2"><g id="testocentro"><path d="M79.2,12.38l3.46,9.8h.13l3.46-9.8h1.48L83.45,24H82L77.73,12.38Z" style="fill:#fff"/><path d="M89.54,24V12.38h7v1.25H91v3.93H96.2v1.25H91v4h5.7V24Z" style="fill:#fff"/><path d="M99.1,24V12.38H103a4.74,4.74,0,0,1,2.24.47,3,3,0,0,1,1.3,1.26A3.93,3.93,0,0,1,107,16a3.82,3.82,0,0,1-.42,1.82A2.94,2.94,0,0,1,105.28,19a4.82,4.82,0,0,1-2.22.45H99.87V18.2H103a3.53,3.53,0,0,0,1.5-.27,1.75,1.75,0,0,0,.83-.78,2.59,2.59,0,0,0,.26-1.2,2.74,2.74,0,0,0-.26-1.22,1.74,1.74,0,0,0-.84-.81,3.38,3.38,0,0,0-1.51-.29h-2.48V24Zm5.48-5.23L107.44,24h-1.63L103,18.79Z" style="fill:#fff"/><path d="M119.15,18.2a7.11,7.11,0,0,1-.66,3.18,5,5,0,0,1-1.82,2.07,5,5,0,0,1-2.65.73,4.9,4.9,0,0,1-2.65-.73,5.07,5.07,0,0,1-1.83-2.07,7.11,7.11,0,0,1-.66-3.18,7.11,7.11,0,0,1,.66-3.18A5,5,0,0,1,111.37,13a5.17,5.17,0,0,1,5.3,0A5,5,0,0,1,118.49,15,7.11,7.11,0,0,1,119.15,18.2Zm-1.36,0a5.74,5.74,0,0,0-.51-2.55,3.7,3.7,0,0,0-1.35-1.58,3.72,3.72,0,0,0-3.83,0,3.79,3.79,0,0,0-1.36,1.58,5.88,5.88,0,0,0-.5,2.55,5.88,5.88,0,0,0,.5,2.55,3.7,3.7,0,0,0,1.36,1.57,3.67,3.67,0,0,0,3.83,0,3.61,3.61,0,0,0,1.35-1.57A5.74,5.74,0,0,0,117.79,18.2Z" style="fill:#fff"/><path d="M130.75,12.38V24h-1.36L123,14.88h-.11V24h-1.41V12.38h1.37l6.36,9.16h.11V12.38Z" style="fill:#fff"/><path d="M134.05,24h-1.48l4.27-11.64h1.46L142.57,24h-1.48l-3.47-9.8h-.1Zm.54-4.55h6v1.25h-6Z" style="fill:#fff"/><path d="M155.24,15.29a1.76,1.76,0,0,0-.82-1.34,3.19,3.19,0,0,0-1.79-.48,3.53,3.53,0,0,0-1.35.25,2.26,2.26,0,0,0-.9.69,1.65,1.65,0,0,0-.32,1,1.45,1.45,0,0,0,.23.81,2,2,0,0,0,.58.55,4.08,4.08,0,0,0,.73.35c.26.1.5.17.71.23l1.18.31a9.9,9.9,0,0,1,1,.33,4.85,4.85,0,0,1,1.07.58,2.78,2.78,0,0,1,.85.92,2.57,2.57,0,0,1,.34,1.38,3,3,0,0,1-.5,1.7,3.31,3.31,0,0,1-1.43,1.21,5.21,5.21,0,0,1-2.28.45,5.3,5.3,0,0,1-2.16-.4A3.45,3.45,0,0,1,149,22.69a3.2,3.2,0,0,1-.59-1.67h1.46a1.76,1.76,0,0,0,.44,1.09,2.41,2.41,0,0,0,1,.63,4.12,4.12,0,0,0,2.74,0,2.54,2.54,0,0,0,1-.74,1.75,1.75,0,0,0,.37-1.11,1.37,1.37,0,0,0-.32-.95,2.34,2.34,0,0,0-.85-.59,10.85,10.85,0,0,0-1.14-.4l-1.44-.41a5.43,5.43,0,0,1-2.16-1.11,2.47,2.47,0,0,1-.79-1.91,2.82,2.82,0,0,1,.53-1.7,3.46,3.46,0,0,1,1.43-1.14,4.86,4.86,0,0,1,2-.41,4.73,4.73,0,0,1,2,.41,3.34,3.34,0,0,1,1.38,1.09,2.67,2.67,0,0,1,.55,1.57Z" style="fill:#fff"/><path d="M159.09,24V12.38h7v1.25h-5.62v3.93h5.25v1.25h-5.25v4h5.71V24Z" style="fill:#fff"/><path d="M168.65,24V12.38h7v1.25h-5.61v3.93h5.25v1.25h-5.25v4h5.7V24Z" style="fill:#fff"/><path d="M187.44,12.38V24h-1.37l-6.34-9.14h-.11V24h-1.41V12.38h1.36l6.37,9.16h.11V12.38Z" style="fill:#fff"/><path d="M194.12,13.63V12.38h8.73v1.25h-3.66V24h-1.41V13.63Z" style="fill:#fff"/><path d="M205,24V12.38h1.41v5.18h6.21V12.38H214V24h-1.4V18.81h-6.21V24Z" style="fill:#fff"/><path d="M216.87,24V12.38h3.93a4.77,4.77,0,0,1,2.24.47,3,3,0,0,1,1.29,1.26,3.93,3.93,0,0,1,.42,1.84,3.82,3.82,0,0,1-.42,1.82A2.94,2.94,0,0,1,223,19a4.82,4.82,0,0,1-2.22.45h-3.18V18.2h3.13a3.47,3.47,0,0,0,1.5-.27,1.71,1.71,0,0,0,.83-.78,2.47,2.47,0,0,0,.27-1.2,2.61,2.61,0,0,0-.27-1.22,1.76,1.76,0,0,0-.83-.81,3.43,3.43,0,0,0-1.52-.29h-2.48V24Zm5.47-5.23L225.21,24h-1.64l-2.82-5.23Z" style="fill:#fff"/><path d="M236.92,18.2a7,7,0,0,1-.67,3.18,5,5,0,0,1-1.82,2.07,5.17,5.17,0,0,1-5.3,0,5,5,0,0,1-1.82-2.07,7.11,7.11,0,0,1-.66-3.18,7.11,7.11,0,0,1,.66-3.18A4.92,4.92,0,0,1,229.13,13a5.17,5.17,0,0,1,5.3,0A4.92,4.92,0,0,1,236.25,15,7,7,0,0,1,236.92,18.2Zm-1.37,0a5.74,5.74,0,0,0-.5-2.55,3.72,3.72,0,0,0-1.36-1.58,3.71,3.71,0,0,0-3.82,0,3.79,3.79,0,0,0-1.36,1.58,5.88,5.88,0,0,0-.5,2.55,5.88,5.88,0,0,0,.5,2.55,3.7,3.7,0,0,0,1.36,1.57,3.65,3.65,0,0,0,3.82,0,3.63,3.63,0,0,0,1.36-1.57A5.74,5.74,0,0,0,235.55,18.2Z" style="fill:#fff"/><path d="M246.92,12.38h1.41v7.71a4,4,0,0,1-.56,2.13,3.91,3.91,0,0,1-1.57,1.47,5.65,5.65,0,0,1-4.78,0,4,4,0,0,1-1.57-1.47,4,4,0,0,1-.56-2.13V12.38h1.41V20a3,3,0,0,0,.37,1.52,2.68,2.68,0,0,0,1.07,1,4,4,0,0,0,3.34,0,2.62,2.62,0,0,0,1.07-1,3,3,0,0,0,.37-1.52Z" style="fill:#fff"/><path d="M259.1,16a4.09,4.09,0,0,0-.49-1,3,3,0,0,0-.72-.78,2.88,2.88,0,0,0-.95-.5,3.87,3.87,0,0,0-1.16-.17,3.51,3.51,0,0,0-1.88.53,3.75,3.75,0,0,0-1.34,1.58,5.74,5.74,0,0,0-.5,2.55,5.88,5.88,0,0,0,.5,2.55,3.72,3.72,0,0,0,1.37,1.57,3.6,3.6,0,0,0,1.95.54,3.5,3.5,0,0,0,1.76-.43,3,3,0,0,0,1.19-1.21,3.81,3.81,0,0,0,.43-1.86l.43.09h-3.5V18.2h4.43v1.25A4.9,4.9,0,0,1,260,22a4.17,4.17,0,0,1-1.68,1.65,5.13,5.13,0,0,1-2.45.58,5.07,5.07,0,0,1-2.72-.73,4.91,4.91,0,0,1-1.82-2.07,7.24,7.24,0,0,1-.65-3.18,7.93,7.93,0,0,1,.37-2.48,5.43,5.43,0,0,1,1.06-1.89,4.48,4.48,0,0,1,1.61-1.19,5,5,0,0,1,2.05-.42,5.3,5.3,0,0,1,1.72.28,4.62,4.62,0,0,1,1.43.78,4.33,4.33,0,0,1,1.05,1.2,4.6,4.6,0,0,1,.58,1.54Z" style="fill:#fff"/><path d="M263,24V12.38h1.41v5.18h6.2V12.38h1.41V24h-1.41V18.81h-6.2V24Z" style="fill:#fff"/><path d="M278.74,13.63V12.38h8.73v1.25h-3.66V24H282.4V13.63Z" style="fill:#fff"/><path d="M289.65,24V12.38h1.41v5.18h6.2V12.38h1.41V24h-1.41V18.81h-6.2V24Z" style="fill:#fff"/><path d="M301.49,24V12.38h7v1.25H302.9v3.93h5.25v1.25H302.9v4h5.71V24Z" style="fill:#fff"/><path d="M315.55,24V12.38h7v1.25H317v3.93h5.25v1.25H317v4h5.71V24Z" style="fill:#fff"/><path d="M324.12,12.38h1.61L329,17.81h.13l3.23-5.43h1.61l-4.2,6.84V24h-1.41v-4.8Z" style="fill:#fff"/><path d="M335.76,24V12.38h7v1.25h-5.61v3.93h5.25v1.25h-5.25v4h5.7V24Z" style="fill:#fff"/><path d="M351.68,15.29a1.77,1.77,0,0,0-.83-1.34,3.15,3.15,0,0,0-1.78-.48,3.46,3.46,0,0,0-1.35.25,2.19,2.19,0,0,0-.9.69,1.65,1.65,0,0,0-.32,1,1.53,1.53,0,0,0,.22.81,2.18,2.18,0,0,0,.58.55,4.17,4.17,0,0,0,.74.35c.26.1.5.17.71.23l1.18.31a9.78,9.78,0,0,1,1,.33,4.7,4.7,0,0,1,1.08.58,2.89,2.89,0,0,1,.85.92,2.66,2.66,0,0,1,.34,1.38,3,3,0,0,1-.5,1.7,3.31,3.31,0,0,1-1.43,1.21,6,6,0,0,1-4.44.05,3.49,3.49,0,0,1-1.44-1.13,3.19,3.19,0,0,1-.58-1.67h1.45a1.83,1.83,0,0,0,.45,1.09,2.41,2.41,0,0,0,1,.63,4.12,4.12,0,0,0,2.74,0,2.54,2.54,0,0,0,1-.74,1.75,1.75,0,0,0,.37-1.11,1.42,1.42,0,0,0-.32-.95,2.43,2.43,0,0,0-.85-.59,11,11,0,0,0-1.15-.4l-1.43-.41a5.36,5.36,0,0,1-2.16-1.11,2.47,2.47,0,0,1-.79-1.91,2.75,2.75,0,0,1,.53-1.7,3.46,3.46,0,0,1,1.43-1.14,4.85,4.85,0,0,1,2-.41,4.7,4.7,0,0,1,2,.41,3.31,3.31,0,0,1,1.39,1.09,2.67,2.67,0,0,1,.55,1.57Z" style="fill:#fff"/><path d="M369.84,18.2a7.11,7.11,0,0,1-.66,3.18,5.07,5.07,0,0,1-1.83,2.07,5.16,5.16,0,0,1-5.29,0,5,5,0,0,1-1.83-2.07,7.11,7.11,0,0,1-.66-3.18,7.11,7.11,0,0,1,.66-3.18A4.94,4.94,0,0,1,362.06,13a5.16,5.16,0,0,1,5.29,0A5,5,0,0,1,369.18,15,7.11,7.11,0,0,1,369.84,18.2Zm-1.36,0a5.74,5.74,0,0,0-.51-2.55,3.72,3.72,0,0,0-1.36-1.58,3.54,3.54,0,0,0-1.91-.53,3.59,3.59,0,0,0-1.91.53,3.79,3.79,0,0,0-1.36,1.58,5.88,5.88,0,0,0-.5,2.55,5.88,5.88,0,0,0,.5,2.55,3.7,3.7,0,0,0,1.36,1.57,3.51,3.51,0,0,0,1.91.54,3.46,3.46,0,0,0,1.91-.54A3.63,3.63,0,0,0,368,20.75,5.74,5.74,0,0,0,368.48,18.2Z" style="fill:#fff"/><path d="M372.21,24V12.38h7v1.25h-5.57v3.93h5.05v1.25h-5.05V24Z" style="fill:#fff"/><path d="M389.69,24H386.1V12.38h3.75a5.64,5.64,0,0,1,2.9.7,4.63,4.63,0,0,1,1.85,2,7.07,7.07,0,0,1,.64,3.11,7,7,0,0,1-.65,3.13,4.59,4.59,0,0,1-1.89,2A6.09,6.09,0,0,1,389.69,24Zm-2.18-1.25h2.09a4.67,4.67,0,0,0,2.39-.56,3.46,3.46,0,0,0,1.42-1.58,6,6,0,0,0,.46-2.45,5.82,5.82,0,0,0-.46-2.43A3.39,3.39,0,0,0,392,14.18a4.42,4.42,0,0,0-2.28-.55h-2.25Z" style="fill:#fff"/><path d="M399,12.38V24H397.6V12.38Z" style="fill:#fff"/><path d="M401.83,24V12.38h7v1.25h-5.57v3.93h5.05v1.25h-5.05V24Z" style="fill:#fff"/><path d="M411.23,24V12.38h7v1.25h-5.56v3.93h5v1.25h-5V24Z" style="fill:#fff"/><path d="M420.62,24V12.38h7v1.25H422v3.93h5.25v1.25H422v4h5.71V24Z" style="fill:#fff"/><path d="M430.18,24V12.38h3.93a4.74,4.74,0,0,1,2.24.47,3,3,0,0,1,1.29,1.26,3.93,3.93,0,0,1,.43,1.84,3.82,3.82,0,0,1-.43,1.82A3,3,0,0,1,436.36,19a4.86,4.86,0,0,1-2.23.45H431V18.2h3.14a3.53,3.53,0,0,0,1.5-.27,1.75,1.75,0,0,0,.83-.78,2.59,2.59,0,0,0,.26-1.2,2.74,2.74,0,0,0-.26-1.22,1.83,1.83,0,0,0-.84-.81,3.41,3.41,0,0,0-1.51-.29h-2.48V24Zm5.48-5.23L438.52,24h-1.64l-2.81-5.23Z" style="fill:#fff"/><path d="M440.41,24V12.38h7v1.25h-5.62v3.93h5.25v1.25h-5.25v4h5.71V24Z" style="fill:#fff"/><path d="M459.2,12.38V24h-1.36l-6.34-9.14h-.11V24H450V12.38h1.36l6.36,9.16h.12V12.38Z" style="fill:#fff"/><path d="M461.39,13.63V12.38h8.72v1.25h-3.66V24h-1.4V13.63Z" style="fill:#fff"/><path d="M477.27,24h-1.48l4.27-11.64h1.46L485.79,24h-1.48l-3.48-9.8h-.09Zm.54-4.55h6v1.25h-6Z" style="fill:#fff"/><path d="M487.6,24V12.38h3.93a4.74,4.74,0,0,1,2.24.47,3,3,0,0,1,1.3,1.26,3.93,3.93,0,0,1,.42,1.84,3.82,3.82,0,0,1-.42,1.82A2.94,2.94,0,0,1,493.78,19a4.83,4.83,0,0,1-2.23.45h-3.18V18.2h3.14a3.53,3.53,0,0,0,1.5-.27,1.75,1.75,0,0,0,.83-.78,2.59,2.59,0,0,0,.26-1.2,2.74,2.74,0,0,0-.26-1.22,1.74,1.74,0,0,0-.84-.81,3.38,3.38,0,0,0-1.51-.29H489V24Zm5.48-5.23L495.94,24H494.3l-2.81-5.23Z" style="fill:#fff"/><path d="M497.2,13.63V12.38h8.73v1.25h-3.66V24h-1.41V13.63Z" style="fill:#fff"/><path d="M509.51,12.38V24H508.1V12.38Z" style="fill:#fff"/><path d="M518.7,15.29a1.8,1.8,0,0,0-.83-1.34,3.18,3.18,0,0,0-1.78-.48,3.55,3.55,0,0,0-1.36.25,2.16,2.16,0,0,0-.89.69,1.59,1.59,0,0,0-.32,1,1.45,1.45,0,0,0,.22.81,2,2,0,0,0,.58.55,3.86,3.86,0,0,0,.74.35,6.44,6.44,0,0,0,.71.23l1.18.31c.3.08.64.19,1,.33a4.64,4.64,0,0,1,1.07.58,2.92,2.92,0,0,1,.86.92,2.66,2.66,0,0,1,.33,1.38,3,3,0,0,1-.49,1.7,3.4,3.4,0,0,1-1.44,1.21,5.19,5.19,0,0,1-2.27.45,5.32,5.32,0,0,1-2.17-.4,3.52,3.52,0,0,1-1.43-1.13,3.29,3.29,0,0,1-.59-1.67h1.46a1.82,1.82,0,0,0,.44,1.09,2.41,2.41,0,0,0,1,.63A3.9,3.9,0,0,0,516,23a3.94,3.94,0,0,0,1.45-.26,2.58,2.58,0,0,0,1-.74,1.76,1.76,0,0,0,.38-1.11,1.37,1.37,0,0,0-.33-.95,2.34,2.34,0,0,0-.85-.59,10.1,10.1,0,0,0-1.14-.4l-1.43-.41A5.36,5.36,0,0,1,513,17.38a2.48,2.48,0,0,1-.8-1.91,2.82,2.82,0,0,1,.53-1.7,3.59,3.59,0,0,1,1.43-1.14,4.93,4.93,0,0,1,2-.41,4.7,4.7,0,0,1,2,.41,3.38,3.38,0,0,1,1.39,1.09,2.73,2.73,0,0,1,.54,1.57Z" style="fill:#fff"/><path d="M521.9,13.63V12.38h8.73v1.25H527V24h-1.41V13.63Z" style="fill:#fff"/><path d="M539.17,15.29a1.8,1.8,0,0,0-.83-1.34,3.19,3.19,0,0,0-1.79-.48,3.53,3.53,0,0,0-1.35.25,2.26,2.26,0,0,0-.9.69,1.64,1.64,0,0,0-.31,1,1.45,1.45,0,0,0,.22.81,2,2,0,0,0,.58.55,3.86,3.86,0,0,0,.74.35,6.44,6.44,0,0,0,.71.23l1.18.31c.3.08.64.19,1,.33a4.85,4.85,0,0,1,1.07.58,2.78,2.78,0,0,1,.85.92,2.57,2.57,0,0,1,.34,1.38,3,3,0,0,1-.49,1.7,3.4,3.4,0,0,1-1.44,1.21,5.19,5.19,0,0,1-2.27.45,5.32,5.32,0,0,1-2.17-.4,3.52,3.52,0,0,1-1.43-1.13A3.2,3.2,0,0,1,532.3,21h1.46a1.82,1.82,0,0,0,.44,1.09,2.41,2.41,0,0,0,1,.63,3.9,3.9,0,0,0,1.3.21,3.85,3.85,0,0,0,1.44-.26,2.54,2.54,0,0,0,1-.74,1.76,1.76,0,0,0,.38-1.11,1.37,1.37,0,0,0-.33-.95,2.34,2.34,0,0,0-.85-.59,10.1,10.1,0,0,0-1.14-.4l-1.43-.41a5.36,5.36,0,0,1-2.16-1.11,2.48,2.48,0,0,1-.8-1.91,2.82,2.82,0,0,1,.53-1.7,3.53,3.53,0,0,1,1.43-1.14,4.89,4.89,0,0,1,2-.41,4.7,4.7,0,0,1,2,.41A3.38,3.38,0,0,1,540,13.72a2.73,2.73,0,0,1,.54,1.57Z" style="fill:#fff"/><rect width="618" height="34.05" style="fill:none"/></g></g></svg>