<svg xmlns="http://www.w3.org/2000/svg" viewBox="0 0 618 59"><g id="Livello_2" data-name="Livello 2"><g id="the"><path d="M322,18.08H291.31V0h-2.54V52h2.54V20.17H322V52h5.08V0H322Z" style="fill:#fff"/><path d="M270,0H253.88l-2.51,6s3.8-3.91,13.57-3.91V52H270v-50c9.77,0,13.58,3.91,13.58,3.91L281,0Z" style="fill:#fff"/><path d="M340.9,50v-26h17c.25,0,1.27,0,2.3,2.08V19.77c-1,2.09-2,2.09-2.3,2.09h-17V2.08H350C359.8,2.08,363.61,6,363.61,6l-2.54-6H335.83V52h28.31l2.53-6S362.87,50,353.1,50Z" style="fill:#fff"/><rect width="618" height="59" style="fill:none"/></g></g></svg>