<svg xmlns="http://www.w3.org/2000/svg" viewBox="0 0 618 103.39"><g id="Livello_2" data-name="Livello 2"><g id="veroneser"><path d="M97.68,95.81V51.1h29.21c.44,0,2.18,0,3.93,3.57V43.94c-1.75,3.58-3.49,3.58-3.93,3.58H97.68v-34h15.69c16.79,0,23.34,6.71,23.34,6.71L132.34,10H89V99.39h48.61l4.36-10.28s-6.55,6.7-23.32,6.7Z" style="fill:#fff"/><path d="M191.43,82.66V64.06a16,16,0,0,0-.66-4c0-.09-.05-.19-.08-.29a17.66,17.66,0,0,0-6.2-9,16.91,16.91,0,0,0-10.23-3.49,16,16,0,0,0,2.38-.51A18.48,18.48,0,0,0,183.46,43a18.77,18.77,0,0,0,4.8-6.41,19.18,19.18,0,0,0,0-15.79,18.77,18.77,0,0,0-4.8-6.41,19,19,0,0,0-4.66-2.93,19.86,19.86,0,0,0-2.16-.79,18.52,18.52,0,0,0-5.18-.73h-23.2c5.24,2.68,5.24,4.92,5.24,5.82V99.39h9.15V14h6.79c6.75.21,12.18,7.56,12.18,16.6a20.08,20.08,0,0,1-3.51,11.73,10.77,10.77,0,0,1-8.67,4.86A20.78,20.78,0,0,1,177.06,52a17.76,17.76,0,0,1,2.61,3.18,17.15,17.15,0,0,1,2.59,8.42h0V84.42a17.73,17.73,0,0,0,2.42,9,3.13,3.13,0,0,0,.22.36l.16.26c.13.21.26.4.4.61l.19.25.25.34a7.67,7.67,0,0,0,.52.64l.41.48a17.08,17.08,0,0,0,7.82,4.91h0a12.14,12.14,0,0,0,4,.66h.22a11.84,11.84,0,0,0,3.58-.6,12.42,12.42,0,0,0,6.53-5.07l-3.27,1.28C197.83,100.41,191.43,90.67,191.43,82.66Z" style="fill:#fff"/><path d="M42.66,85.53,8.72,10H0L38.48,95.62l2.26,5.06,4.19-10.1L78.38,10H74Z" style="fill:#fff"/><path d="M296.21,31.6A44.65,44.65,0,0,0,290.62,24a46.55,46.55,0,0,0-6.94-6.23A48.39,48.39,0,0,0,267.25,10a49.59,49.59,0,0,0-49.33,15.05,48,48,0,0,0-5.48,7.63,45.68,45.68,0,0,0-5.84,27.78,45.22,45.22,0,0,0,11.63,25.8,46.57,46.57,0,0,0,7,6.2,48.37,48.37,0,0,0,16.45,7.64,49.63,49.63,0,0,0,34.75-3.94,49.09,49.09,0,0,0,14.4-11.12,45.74,45.74,0,0,0,11.36-35.3,45.67,45.67,0,0,0-5.93-18.15Zm-3.75,34.88a44.5,44.5,0,0,1-6.38,14.69,41.11,41.11,0,0,1-5.22,6.25,36.81,36.81,0,0,1-45.39,5,40.68,40.68,0,0,1-6.39-4.94,43.76,43.76,0,0,1-9.28-12.91,47,47,0,0,1-3.22-30.8A44.11,44.11,0,0,1,223,29.18a39.18,39.18,0,0,1,11.6-11.27A36.76,36.76,0,0,1,266,14.36a38.6,38.6,0,0,1,13.75,8.4,43.69,43.69,0,0,1,9.34,12.84,46.85,46.85,0,0,1,3.34,30.88Z" style="fill:#fff"/><path d="M363.51,80l-45.4-67L316,10h-7.53c5.23,2.68,5.23,4.92,5.23,5.82V99.39h4.37V28.45l45.41,67,4.36,6.44V10h-4.36Z" style="fill:#fff"/><path d="M391.58,95.81V51.1h29.21c.47,0,2.19,0,3.93,3.57V43.94c-1.74,3.58-3.49,3.58-3.93,3.58H391.58v-34h15.7c16.79,0,23.33,6.71,23.33,6.71L426.24,10H382.86V99.39h48.62l4.36-10.28s-6.54,6.7-23.33,6.7Z" style="fill:#fff"/><path d="M467.39,8.55c-8.23,1.62-12,9.54-12.68,11-2.86,6.3-1.63,12.78-.92,16.58a39,39,0,0,0,1.56,5.62c.57,1.61,1.27,3.24,6.29,13.1l.34.67c5.93,11.58,14.67,28.8,9.08,36.76-2.91,4.16-9.76,5.9-14.73,3.59-5.58-2.58-8.87-10.29-7-18.7-3.25,1.45-6.17,9.15-3.44,15.62,3.73,8.82,19.76,10.72,27.8,4,8.78-7.35,5.43-22.89,4.87-25.52-.79-3.65-2.48-7.42-5.85-14.94-2.86-6.4-6.29-12.86-6.29-12.86-.64-1.19-1.3-2.42-1.95-3.69.65,1.27,1.31,2.5,1.95,3.69l-5-10.16c-3.57-8.81-4.28-17.54,7.67-20.56a11.63,11.63,0,0,1,1.77-.14,11.8,11.8,0,0,1,1.46.09A12.27,12.27,0,0,1,479.57,18c3.46,5.57.57,12.21.33,12.74,4.15-3.55,6.54-8.57,5.58-13.09C484,10.31,474.27,7.2,467.39,8.55Zm-4,29.08-.51-1C463.1,36.94,463.26,37.29,463.43,37.63Z" style="fill:#fff"/><path d="M506.24,95.81V51.1h29.22c.43,0,2.18,0,3.92,3.57V43.94c-1.74,3.58-3.49,3.58-3.92,3.58H506.24v-34h15.7c16.79,0,23.33,6.71,23.33,6.71L540.91,10H497.52V99.39h48.62l4.36-10.28s-6.54,6.7-23.32,6.7Z" style="fill:#fff"/><path d="M614.73,97.55c-7.88,2.86-14.27-6.88-14.27-14.89V64.06a17,17,0,0,0-.66-4c0-.09,0-.19-.08-.29a17.66,17.66,0,0,0-6.2-9,16.93,16.93,0,0,0-10.23-3.49,16.27,16.27,0,0,0,2.38-.51A18.44,18.44,0,0,0,597.28,36.6a19.16,19.16,0,0,0,0-15.78,18.66,18.66,0,0,0-4.79-6.42,18.92,18.92,0,0,0-4.67-2.93,20.49,20.49,0,0,0-2.15-.79,18.57,18.57,0,0,0-5.18-.73H557.3c5.22,2.68,5.22,4.92,5.22,5.83V99.39h9.16V14h6.79c6.76.21,12.19,7.56,12.19,16.6a20.08,20.08,0,0,1-3.51,11.73,10.8,10.8,0,0,1-8.68,4.86A21,21,0,0,1,586.1,52a17.29,17.29,0,0,1,2.6,3.18,16.93,16.93,0,0,1,1.84,4,16.57,16.57,0,0,1,.75,4.42h0V84.42a17.84,17.84,0,0,0,2.43,9c.08.12.15.24.22.36s.11.17.16.25.26.41.4.61l.19.26.24.33c.17.22.34.44.53.65s.27.32.41.47a17.06,17.06,0,0,0,7.82,4.92h0a12.46,12.46,0,0,0,4,.66h.23a11.85,11.85,0,0,0,3.58-.61A12.49,12.49,0,0,0,618,96.26Z" style="fill:#fff"/><rect width="618" height="103.39" style="fill:none"/></g></g></svg>